# xmcd CD database file
#
# Track frame offsets:
#	150
#	11173
#	26807
#	40268
#	52698
#	68280
#	80883
#	94790
#	111193
#	124268
#	140000
#	155133
#
# Disc length: 2220 seconds
#
# Revision: 0
# Processed by: cddbd v1.5.2PL0 Copyright (c) Steve Scherf et al.
# Submitted via: CDex 1.51
#
DISCID=a108aa0c
DTITLE=Rudi ud das SextnerTrio - Wo die Berger
DYEAR=1994
DGENRE=Country
TTITLE0=Wo die Berge ergluen
TTITLE1=Du schoenes Suedtirol
TTITLE2=Die Toni vom Pustertal
TTITLE3=Wo die Almroeslein bluehn
TTITLE4=Endlos jene Strassen
TTITLE5=Wenn die Schwalben
TTITLE6=Mein Pustertal
TTITLE7=Schau das Alpebgluehn
TTITLE8=Wenn i grad GeldGenua haett
TTITLE9=Die Alpenrose aus Mittersill 
TTITLE10=Wenn in Tirol die Blumen bluehn
TTITLE11=Nun muss ich dich verlassen
EXTD=YEAR: 1994
EXTT0=
EXTT1=
EXTT2=
EXTT3=
EXTT4=
EXTT5=
EXTT6=
EXTT7=
EXTT8=
EXTT9=
EXTT10=
EXTT11=
PLAYORDER=
